<svg xmlns="http://www.w3.org/2000/svg" viewBox="0 0 35 41"><path fill="#D23F3F" fill-rule="evenodd" d="M23.059 25.941c2.702 0 5.225-.765 7.365-2.091-.613 7.852-7.18 14.032-15.189 14.032-1.004 0-1.986-.097-2.936-.282a11.908 11.908 0 0 0-7.514-7.8c-1.101-.38-2.22-.59-3.328-.644A15.177 15.177 0 0 1 0 22.647C0 16.271 3.917 10.81 9.475 8.538a14.03 14.03 0 0 0-.416 3.403c0 7.732 6.268 14 14 14Z" clip-rule="evenodd"/><circle cx="23.471" cy="11.529" r="11.529" fill="#428373"/><circle cx="7" cy="37.882" r="2.882" fill="#EAE085"/></svg>