<svg xmlns="http://www.w3.org/2000/svg" viewBox="0 0 127 87"><path fill="#C7403E" fill-rule="evenodd" d="M79.885 55.365c5.755 0 11.13-1.632 15.69-4.464C94.268 67.659 80.279 80.85 63.217 80.85c-2.14 0-4.231-.208-6.254-.603A25.393 25.393 0 0 0 40.955 63.6a25.471 25.471 0 0 0-7.09-1.375 32.434 32.434 0 0 1-3.104-13.89c0-13.607 8.345-25.264 20.184-30.112a29.895 29.895 0 0 0-.885 7.262c0 16.502 13.354 29.88 29.825 29.88Z" clip-rule="evenodd"/><path fill="#418071" d="M80.763 49.21c13.564 0 24.56-11.016 24.56-24.605S94.327 0 80.763 0c-13.564 0-24.56 11.016-24.56 24.605 0 13.59 10.996 24.606 24.56 24.606Z"/><path fill="#E3DA84" d="M45.674 87c3.39 0 6.139-2.754 6.139-6.15a6.145 6.145 0 0 0-6.14-6.15 6.145 6.145 0 0 0-6.139 6.15c0 3.396 2.75 6.15 6.14 6.15Z"/><path d="M17.958 53.127c-.934.461-3.111.994-5.884.994C4.107 54.121 0 49.134 0 42.561c0-7.86 5.624-12.21 12.572-12.21 2.707 0 4.76.53 5.666 1.021l-1.061 4.121c-1.034-.453-2.514-.866-4.373-.866-4.107 0-7.325 2.508-7.325 7.633 0 4.623 2.72 7.526 7.352 7.526 1.594 0 3.319-.316 4.349-.745l.778 4.086Zm3.107-10.587c0-2.458-.045-4.075-.135-5.52h4.463l.19 3.1h.128c.857-2.448 2.893-3.477 4.511-3.477.48 0 .723.014 1.11.097v4.893a6.308 6.308 0 0 0-1.404-.145c-1.908 0-3.211 1.015-3.56 2.642a6.161 6.161 0 0 0-.097 1.16v8.471h-5.206v-11.22Zm16.707 4.527c.155 2.16 2.285 3.186 4.711 3.186 1.756 0 3.198-.236 4.598-.71l.701 3.522c-1.728.707-3.813 1.06-6.056 1.06-5.662 0-8.911-3.304-8.911-8.52 0-4.252 2.648-8.958 8.424-8.958 5.416 0 7.463 4.218 7.463 8.36 0 .907-.093 1.676-.187 2.06H37.772Zm6.1-3.567c.011-1.254-.549-3.394-2.913-3.394-2.195 0-3.084 2.009-3.229 3.394h6.143Zm17.433 10.265-.308-1.663h-.11c-1.09 1.334-2.797 2.04-4.774 2.04-3.401 0-5.403-2.448-5.403-5.122 0-4.363 3.896-6.43 9.807-6.42v-.215c0-.89-.477-2.161-3.06-2.158-1.703 0-3.494.582-4.604 1.25l-.957-3.331c1.165-.668 3.443-1.5 6.495-1.5 5.565 0 7.325 3.294 7.325 7.228v5.839c0 1.596.083 3.113.266 4.055h-4.677v-.003Zm-.63-7.92c-2.733-.014-4.845.644-4.845 2.638 0 1.348.881 2.006 2.063 2.006 1.272 0 2.347-.849 2.69-1.922.079-.27.096-.593.096-.89v-1.833h-.003Zm14.668-13.6v4.776h3.74v3.84h-3.74v6.067c0 2.02.501 2.951 2.05 2.951.67 0 1.185-.07 1.545-.156l.041 3.955c-.67.242-1.911.447-3.367.447-1.68 0-3.08-.586-3.916-1.455-.965-.99-1.438-2.583-1.438-4.962V40.86h-2.22v-3.84h2.22v-3.599l5.085-1.177Zm12.087.128c.008 1.448-1.06 2.6-2.792 2.6-1.645 0-2.71-1.149-2.703-2.6-.007-1.49 1.082-2.608 2.751-2.608 1.677 0 2.724 1.115 2.745 2.608Zm-5.35 21.392V37.02h5.202v16.745H82.08Zm25.835-8.54c0 6.119-4.324 8.914-8.807 8.914-4.86 0-8.628-3.221-8.628-8.627 0-5.402 3.557-8.869 8.928-8.869 5.109 0 8.507 3.526 8.507 8.582Zm-12.08.17c0 2.856 1.206 5.024 3.418 5.024 2.026 0 3.308-2.033 3.308-5.052 0-2.47-.951-5.008-3.305-5.008-2.475.003-3.422 2.556-3.422 5.035Zm15.299-3.027c0-2.085-.066-3.848-.135-5.348h4.507l.242 2.32h.108c.674-1.076 2.374-2.697 5.164-2.697 3.415 0 5.98 2.282 5.98 7.21v9.912h-5.202v-9.282c0-2.157-.768-3.632-2.645-3.632-1.431 0-2.274 1.004-2.634 1.967-.131.325-.183.82-.183 1.288v9.662h-5.202v-11.4Z"/></svg>